<mxfile host="app.diagrams.net" agent="Mozilla/5.0 (Windows NT 10.0; Win64; x64) AppleWebKit/537.36 (KHTML, like Gecko) Chrome/129.0.0.0 Safari/537.36" version="24.7.17">
  <diagram name="Halaman-1" id="GbUWycWMfNZccRVf2EQ0">
    <mxGraphModel dx="880" dy="1629" grid="1" gridSize="10" guides="1" tooltips="1" connect="1" arrows="1" fold="1" page="1" pageScale="1" pageWidth="827" pageHeight="1169" math="0" shadow="0">
      <root>
        <mxCell id="0" />
        <mxCell id="1" parent="0" />
        <mxCell id="GakSFm36LPXETbhwscrp-1" value="START" style="rounded=1;whiteSpace=wrap;html=1;" vertex="1" parent="1">
          <mxGeometry x="354" y="-440" width="120" height="60" as="geometry" />
        </mxCell>
        <mxCell id="GakSFm36LPXETbhwscrp-2" value="" style="endArrow=classic;html=1;rounded=0;" edge="1" parent="1">
          <mxGeometry width="50" height="50" relative="1" as="geometry">
            <mxPoint x="414" y="-380" as="sourcePoint" />
            <mxPoint x="414" y="-350" as="targetPoint" />
          </mxGeometry>
        </mxCell>
        <mxCell id="GakSFm36LPXETbhwscrp-3" value="NILAI AWAL PADA SEVEN SEGMEN DIATUR MENJADI 0" style="shape=parallelogram;perimeter=parallelogramPerimeter;whiteSpace=wrap;html=1;fixedSize=1;" vertex="1" parent="1">
          <mxGeometry x="314" y="-350" width="200" height="70" as="geometry" />
        </mxCell>
        <mxCell id="GakSFm36LPXETbhwscrp-4" value="" style="endArrow=classic;html=1;rounded=0;" edge="1" parent="1">
          <mxGeometry width="50" height="50" relative="1" as="geometry">
            <mxPoint x="413" y="-270" as="sourcePoint" />
            <mxPoint x="413" y="-250" as="targetPoint" />
            <Array as="points">
              <mxPoint x="413.5" y="-270" />
              <mxPoint x="413.5" y="-280" />
            </Array>
          </mxGeometry>
        </mxCell>
        <mxCell id="GakSFm36LPXETbhwscrp-8" value="" style="edgeStyle=orthogonalEdgeStyle;rounded=0;orthogonalLoop=1;jettySize=auto;html=1;" edge="1" parent="1" source="GakSFm36LPXETbhwscrp-5" target="GakSFm36LPXETbhwscrp-7">
          <mxGeometry relative="1" as="geometry" />
        </mxCell>
        <mxCell id="GakSFm36LPXETbhwscrp-5" value="ANGKA PADA SEVEN SEGMENT DITAMPILKAN SESUAI DENGAN NILAI YANG ADA" style="strokeWidth=2;html=1;shape=mxgraph.flowchart.display;whiteSpace=wrap;" vertex="1" parent="1">
          <mxGeometry x="336" y="-250" width="156" height="110" as="geometry" />
        </mxCell>
        <mxCell id="GakSFm36LPXETbhwscrp-6" value="" style="endArrow=classic;html=1;rounded=0;" edge="1" parent="1">
          <mxGeometry width="50" height="50" relative="1" as="geometry">
            <mxPoint x="414" y="-130" as="sourcePoint" />
            <mxPoint x="414" y="-110" as="targetPoint" />
            <Array as="points">
              <mxPoint x="414.5" y="-130" />
              <mxPoint x="414.5" y="-140" />
            </Array>
          </mxGeometry>
        </mxCell>
        <mxCell id="GakSFm36LPXETbhwscrp-7" value="NILAI PADA SEVEN SEGMENT DITAMBAH 1" style="rounded=0;whiteSpace=wrap;html=1;" vertex="1" parent="1">
          <mxGeometry x="354" y="-110" width="120" height="60" as="geometry" />
        </mxCell>
        <mxCell id="GakSFm36LPXETbhwscrp-9" value="" style="endArrow=classic;html=1;rounded=0;" edge="1" parent="1">
          <mxGeometry width="50" height="50" relative="1" as="geometry">
            <mxPoint x="414" y="-40" as="sourcePoint" />
            <mxPoint x="414" y="-20" as="targetPoint" />
            <Array as="points">
              <mxPoint x="414.5" y="-40" />
              <mxPoint x="414.5" y="-50" />
            </Array>
          </mxGeometry>
        </mxCell>
        <mxCell id="GakSFm36LPXETbhwscrp-12" value="" style="edgeStyle=orthogonalEdgeStyle;rounded=0;orthogonalLoop=1;jettySize=auto;html=1;" edge="1" parent="1" source="GakSFm36LPXETbhwscrp-10" target="GakSFm36LPXETbhwscrp-7">
          <mxGeometry relative="1" as="geometry" />
        </mxCell>
        <mxCell id="GakSFm36LPXETbhwscrp-10" value="APAKAH NILAI &amp;gt; 9?" style="rhombus;whiteSpace=wrap;html=1;" vertex="1" parent="1">
          <mxGeometry x="354" y="-20" width="126" height="100" as="geometry" />
        </mxCell>
        <mxCell id="GakSFm36LPXETbhwscrp-11" value="" style="endArrow=classic;html=1;rounded=0;" edge="1" parent="1">
          <mxGeometry width="50" height="50" relative="1" as="geometry">
            <mxPoint x="416.5" y="90" as="sourcePoint" />
            <mxPoint x="416.5" y="110" as="targetPoint" />
            <Array as="points">
              <mxPoint x="417" y="90" />
              <mxPoint x="417" y="80" />
            </Array>
          </mxGeometry>
        </mxCell>
        <mxCell id="GakSFm36LPXETbhwscrp-13" value="END" style="rounded=1;whiteSpace=wrap;html=1;" vertex="1" parent="1">
          <mxGeometry x="354" y="110" width="120" height="60" as="geometry" />
        </mxCell>
      </root>
    </mxGraphModel>
  </diagram>
</mxfile>
